<svg xmlns="http://www.w3.org/2000/svg" viewBox="0 0 278.41 300"><path fill="#00aeef" d="M277.64,103.3a194.07,194.07,0,0,1-.25,36.83c-1.56,18-4.56,28.74-8.88,40.26a196.4,196.4,0,0,1-15.81,32.92l-.36.58c-1.88,3.07-3.26,5.32-4,6.38l-.45-.5c-.71-.74-1.77-1.85-3.41-3.48-2.39-2.4-9.12-11.18-11-13.88a97.5,97.5,0,0,1-7.32-12.17l-1-2.17-1.88,1.48a9.21,9.21,0,0,0-3.12,7.41c0,2.69.66,5.81,2.29,11.51a107.18,107.18,0,0,0,8.56,20.38c.44.83.89,1.64,1.31,2.39,2.51,4.51,3.48,6.57,2.29,7.43a.85.85,0,0,1-.55.16c-1.49,0-4.24-1.42-7.36-3.8-2.77-2.11-10.19-8.39-19.17-20.94A188.31,188.31,0,0,1,190,184.22l-.78-1.64a12.77,12.77,0,0,0-2.19,1,4.73,4.73,0,0,0-1.79,1.76,11.51,11.51,0,0,0-1,7.07c.82,6.68,4.74,16.88,7.9,24.24,5.34,12.43,15.16,26.41,22.46,36,.28.37.61.76,1,1.16s1,1.21,1.36,1.71c-.64.65-2.13,1.87-3.93,3.35l-2.69,2.18a201.27,201.27,0,0,1-31.1,21.14c-9.12,5.1-27.68,14.52-40,17.81-12.31-3.29-30.86-12.71-40-17.81a200.34,200.34,0,0,1-31.12-21.14l-2.75-2.24c-1.8-1.47-3.29-2.7-3.89-3.32.29-.37,2.05-2.47,2.34-2.84,7.29-9.52,17.11-23.49,22.46-36,3.15-7.35,7.08-17.52,7.91-24.25a11.59,11.59,0,0,0-1-7,4.92,4.92,0,0,0-2.31-2.12l-1.67-.7-.79,1.63A188.62,188.62,0,0,1,71,214.09C62,226.63,54.56,232.91,51.78,235c-3.07,2.34-5.88,3.8-7.36,3.8a.84.84,0,0,1-.46-.1l-.28-.22c-.89-.94.12-3,2.51-7.3l1.29-2.36A108.78,108.78,0,0,0,56,208.48c1.64-5.72,2.26-8.84,2.3-11.52a9.19,9.19,0,0,0-3.13-7.41l-1.88-1.48-1,2.17A96.25,96.25,0,0,1,45,202.41c-1.9,2.71-8.63,11.51-11,13.88-1.64,1.63-2.7,2.75-3.41,3.49-.17.19-.32.34-.45.47-.8-1.08-2.25-3.44-4.23-6.67a195.86,195.86,0,0,1-16-33.19C5.57,168.86,2.57,158.1,1,140.13a193,193,0,0,1-.24-36.86c1.39-14.42,5-28,10.17-38.33,7.3-14.57,16.4-23.2,27.8-26.4a46.71,46.71,0,0,1,12.34-1.75c9.06,0,16.29,3,21.5,8.85A14.13,14.13,0,0,1,75.5,58.22c-1,4-3.79,6.52-7.47,8.25a12.85,12.85,0,0,1-2,.72,9.3,9.3,0,0,0,1.1,2.09c3.64,5.87,10.73,9,20.47,9a51.94,51.94,0,0,0,7-.5C108.45,75.8,114.69,67.05,117,50.2c.89-6.58,1.74-12.11-2.5-19-3-4.8-11.45-7.63-17.65-7.61-5.54,0-8.48,1.47-10.25,3.32-.08-.27-.47-.73-.57-1a9.85,9.85,0,0,1-.64-6.24,15.61,15.61,0,0,1,5-8.17,28.59,28.59,0,0,1,12.79-6.28,42.93,42.93,0,0,1,9.06-1.12c.71,0,3.06,0,4.11.07.45,0,.53-.16.86-.57,2-2.45,5.22-3.79,11-3.66,4.47.1,10.43.33,15.12,1.83A32.13,32.13,0,0,1,152.05,6a19.59,19.59,0,0,1,7,9.28,70.16,70.16,0,0,1,3.22,20c.32,15.56,2.53,25,6.89,30.64,7,9.08,13,11,20.29,11.44h.79c13.71,0,18.71-4.35,20.94-7.66a30.68,30.68,0,0,0,1.71-2.67,18.93,18.93,0,0,1-2.85-.73,11.22,11.22,0,0,1-7-7.87,14.17,14.17,0,0,1,2.82-12.8c6.5-7.55,16.18-8.79,21.37-8.86h.58a38.86,38.86,0,0,1,11.77,1.79,40.71,40.71,0,0,1,13.15,6.75c7.11,5.69,11.6,13.46,14.71,19.58C272.57,75,276.38,89.33,277.64,103.3Z"/></svg>
